# xmcd CD database file
#
# Track frame offsets:
#	150
#	45498
#	135907
#
# Disc length: 3638 seconds
#
# Revision: 0
# Processed by: cddbd v1.5.2PL0 Copyright (c) Steve Scherf et al.
# Submitted via: CDex 1.51
#
DISCID=1a0e3403
DTITLE=Liquid Mind - Dream
DYEAR=2011
DGENRE=New Age
TTITLE0=Dream Ten
TTITLE1=Dream Twenty
TTITLE2=Dream Thirty
EXTD=YEAR: 2011
EXTT0=
EXTT1=
EXTT2=
PLAYORDER=
